<svg xmlns="http://www.w3.org/2000/svg" width="40" height="40" viewBox="0 0 40 40">
    <path fill="#CACED2" d="M20 0c11.046 0 20 8.954 20 20s-8.954 20-20 20S0 31.046 0 20 8.954 0 20 0zm5.38 22.29c-.29-.033-.58.051-.82.219-1.043.732-2.247 1.207-3.54 1.348-.262.028-.527.042-.795.042-.252 0-.503-.013-.75-.038-1.308-.131-2.526-.608-3.58-1.347-.241-.17-.534-.254-.826-.22-2.902.35-5.346 2.187-6.546 4.726-.173.365-.149.79.057 1.138 1.712 2.888 4.69 5.065 8.26 5.921 1.08.26 2.215.398 3.385.398 1.192 0 2.347-.144 3.445-.412 3.565-.871 6.534-3.064 8.232-5.964.204-.35.225-.776.05-1.14-1.22-2.524-3.67-4.341-6.573-4.67zM20.224 7.974c-3.808 0-6.894 3.086-6.894 6.893s3.086 6.893 6.894 6.893c3.806 0 6.893-3.086 6.893-6.893s-3.087-6.893-6.893-6.893z"/>
</svg>
