<svg xmlns="http://www.w3.org/2000/svg" viewBox="0 0 40 40">
    <g fill="none" fill-rule="evenodd">
        <rect width="40" height="40"/>
        <path id="hoory-male-icon" fill="#623BEA" d="M37.6698304,24.9038204 L37.808047,24.9112312 C38.0383819,24.9360346 38.2670129,25.023602 38.4703374,25.1814904 L38.4703374,25.1814904 L38.5741342,25.2708878 C38.9683535,25.6467836 39.1086303,26.2346311 38.9112557,26.7563497 L38.9112557,26.7563497 L38.7728339,27.1122902 C35.7532383,34.6710972 28.4871335,40 19.9976201,40 L19.9976201,40 L19.6008144,39.996113 C11.1552083,39.8305195 3.97853334,34.3901114 1.08905248,26.7696542 L1.08905248,26.7696542 L1.03973977,26.6112685 C1.01351474,26.5047412 1.00048267,26.3967174 1,26.2894601 L1,26.2894601 L1,26.2759092 L1.00754361,26.1378957 C1.04591615,25.7719775 1.22918745,25.4268025 1.52972949,25.193563 L1.52972949,25.193563 L1.6388576,25.1169889 C2.34309233,24.6724976 3.28088971,24.9922831 3.58879649,25.8023673 L3.58879649,25.8023673 L3.71955801,26.1362233 C6.35349125,32.6695626 12.6478184,37.2706052 19.9976201,37.2706052 L19.9976201,37.2706052 L20.3706208,37.2666484 C27.6878967,37.1112712 33.9045357,32.3949226 36.411029,25.7910339 C36.6238862,25.2300272 37.1391356,24.9038204 37.6698304,24.9038204 L37.6698304,24.9038204 Z M20.1207949,-1.3500312e-13 C23.3535136,0.010620683 26.3375991,1.0922014 28.749148,2.91401902 L28.749148,2.91401902 L29.0287201,3.13058256 C32.4440728,5.84269356 34.6405922,10.0688169 34.6405922,14.8178287 L34.6405922,14.8178287 L34.6403448,15.567699 C34.6336502,15.7665832 34.475372,19.6666676 32.3120829,21.3702961 L32.3120829,21.3702961 L32.2610692,21.6641079 C31.1911158,27.5318006 27.1406619,32.8604093 20.1686276,32.8762006 L20.1686276,32.8762006 L20.1380341,32.8769416 L20.1380341,32.8759537 L19.7902543,32.8707181 C12.8838196,32.6775365 8.92743943,27.2029824 7.98049613,21.2873066 L7.981,21.291 L7.99017802,21.3573599 L7.99017802,21.3573599 L8.00113464,21.4283394 L7.82916385,21.2916009 C5.70449837,19.50155 5.60099758,15.5597945 5.60099758,15.5597945 L5.60099758,15.5597945 L5.60099758,14.8178287 L5.60579168,14.4339391 C5.7238083,9.71391557 8.01192033,5.54356752 11.4924417,2.91401902 L11.4924417,2.91401902 L11.7968439,2.69017114 C14.1530961,1.00392898 17.0227727,0.0101781545 20.1207949,-1.3500312e-13 Z M11.9982066,10.518675 L11.8816565,10.9852583 C11.3157135,13.1831579 10.4373689,15.6510665 9.08672015,17.6688646 L9.08672015,17.6688646 L9.11172917,18.0993727 L9.11172917,18.4886331 C9.11172917,24.6859251 12.8504556,31.4863731 20.1530881,31.4962528 L20.1530881,31.4962528 L20.4825819,31.4911638 C27.5684071,31.2806844 31.1949326,24.59227 31.1949326,18.4886331 L31.1949326,18.4886331 L31.1949326,18.0993727 L31.1021807,14.6194936 L31.0902832,14.5757759 L30.5670477,14.5920428 C21.2010218,14.8267866 14.6610376,11.954286 11.9982066,10.518675 L11.9982066,10.518675 Z M23.7591288,27.3798547 L23.8351039,27.387272 C24.0987204,27.4404515 24.192926,27.7660926 23.9572061,27.9236216 L23.9572061,27.9236216 L23.7125536,28.0809614 C20.703645,29.9377786 18.0182593,28.7287422 16.7727407,27.9270162 L16.7727407,27.9270162 L16.7185381,27.8842605 C16.5290614,27.7007315 16.6632166,27.3798547 16.9635513,27.3798547 L16.9635513,27.3798547 L23.7591288,27.3798547 Z M14.5354972,17.8888948 L14.6765732,17.8957205 C15.4194078,17.967973 16.0003862,18.6049216 16.0003862,19.3802188 L16.0003862,19.3802188 L15.9936802,19.5239023 C15.9226951,20.2804447 15.2969267,20.8717875 14.5354972,20.8717875 L14.5354972,20.8717875 L14.3944213,20.8649618 C13.6515867,20.7927085 13.0706083,20.1557464 13.0706083,19.3802188 C13.0706083,18.5564655 13.7264785,17.8888948 14.5354972,17.8888948 L14.5354972,17.8888948 Z M25.7046961,17.8888948 L25.8356952,17.8957205 C26.5254702,17.967973 27.0649502,18.6049216 27.0649502,19.3802188 L27.0649502,19.3802188 L27.0587232,19.5239023 C26.9928084,20.2804447 26.4117377,20.8717875 25.7046961,20.8717875 L25.7046961,20.8717875 L25.5736993,20.8649618 C24.8839476,20.7927085 24.3446653,20.1557464 24.3446653,19.3802188 C24.3446653,18.5564655 24.9534644,17.8888948 25.7046961,17.8888948 L25.7046961,17.8888948 Z M12.9582621,7.46362524 C12.7378356,7.36667403 12.4748617,7.43085552 12.3216242,7.62910827 L12.3216242,7.62910827 L12.2686407,7.71169075 C12.1343285,7.96851072 12.2200341,8.29759382 12.4792052,8.4454189 C14.2665,9.4672274 20.345876,12.5734067 28.4616657,12.7445726 L28.4616657,12.7445726 L28.0118023,12.7053564 C20.2536752,11.9726856 14.5632685,8.52102195 13.0386302,7.5075879 L13.0386302,7.5075879 Z"/>
    </g>
</svg>
