<svg xmlns="http://www.w3.org/2000/svg" viewBox="0 0 40 40">
    <g fill="none" fill-rule="evenodd">
        <rect width="40" height="40"/>
        <path id="hoory-female-icon" fill="#623BEA" d="M37.5027901,24.6920713 L37.6422448,24.6995316 C37.8746204,24.7242976 38.1051921,24.8112332 38.3105656,24.9679822 L38.3105656,24.9679822 L38.4153528,25.0566865 C38.8133112,25.429711 38.9546542,26.0135424 38.7554874,26.5317221 L38.7554874,26.5317221 L38.6158088,26.8850828 C35.5687954,34.3891053 28.2367148,39.6793181 19.6701172,39.6793181 L19.6701172,39.6793181 L19.2697086,39.6754593 C10.7474169,39.5110679 3.50557822,34.1101471 0.589861066,26.5441968 L0.589861066,26.5441968 L0.539992368,26.3867003 C0.513529218,26.2807605 0.500487052,26.1732988 0.5,26.0664893 L0.5,26.0664893 L0.5,26.0554822 L0.507540284,25.9183746 C0.546095549,25.5548365 0.731079044,25.2117416 1.03478293,24.9799677 L1.03478293,24.9799677 L1.14490015,24.903913 C1.8555073,24.4624402 2.80160004,24.7801157 3.11230259,25.5838898 L3.11230259,25.5838898 L3.24423964,25.9153603 C5.90186513,32.4020049 12.2535799,36.9693738 19.6701172,36.9693738 L19.6701172,36.9693738 L20.0465166,36.965446 C27.4304565,36.8112056 33.7033067,32.1293588 36.2325589,25.5728827 C36.4473487,25.0159242 36.9672766,24.6920713 37.5027901,24.6920713 L37.5027901,24.6920713 Z M19.7202836,0.15043016 C20.5633703,0.15043016 21.3884362,0.226012143 22.1925588,0.363723006 C28.8789019,1.50886722 34.0176579,7.21388767 34.3170675,14.1820893 L34.3310354,14.1814793 L34.3310354,16.3351989 L34.33,16.3344302 L34.3308649,20.9621371 C34.3308649,21.6723459 33.7911373,22.2564518 33.101092,22.3227127 L32.9700421,22.3289724 L31.6019068,22.3290113 C30.1881171,27.6140167 26.5664479,32.7098765 19.7202836,32.7098765 L19.7202836,32.7098765 L19.3734652,32.7055286 C12.4856778,32.5320468 8.51302045,27.1932289 7.51854258,21.3833185 L7.51671246,21.3720899 C5.21880183,19.6723514 5.10945869,15.560349 5.10945869,15.560349 L5.10945869,14.825565 C5.10945869,9.99565611 7.43318306,5.71120946 11.0186152,3.03697703 C13.4492475,1.22398784 16.4594714,0.15043016 19.7202836,0.15043016 Z M14.3807342,15.197849 L13.9307098,15.4341626 C12.2681857,16.2764499 10.4715951,16.8516635 8.63060003,17.1294701 L8.63060003,17.1294701 L8.63060003,18.4608382 C8.63060003,24.6027916 12.3857698,31.3430412 19.7202836,31.3430412 L19.7202836,31.3430412 L20.0530714,31.3383972 C25.9811653,31.1717679 28.5707551,26.5510323 30.1229805,22.3235912 L30.12,22.3284302 L29.6807374,22.3289724 L29.2742189,22.3246205 C29.2554953,22.3242191 29.2367786,22.3237899 29.2180687,22.3233331 L29.202475,22.3232282 C29.1717529,22.3224902 29.1410362,22.3216812 29.1103252,22.3208013 C29.0150703,22.3175231 28.9204233,22.313954 28.8259591,22.3096799 C25.6116798,22.1725964 22.4679032,21.2579729 19.6842417,19.6447113 L19.6842417,19.6447113 L19.2210111,19.3680763 C17.3857345,18.2390523 15.7629873,16.8408964 14.3807342,15.197849 L14.3807342,15.197849 Z M23.2511659,27.3308364 L23.3243201,27.338148 C23.6025422,27.3954403 23.7033187,27.7748829 23.4569454,27.9579957 L23.4569454,27.9579957 L23.2322771,28.1190898 C20.0946547,30.2886597 17.2911295,28.8888879 15.9928758,27.9616647 L15.9928758,27.9616647 L15.9365695,27.9123231 C15.7397558,27.7005703 15.8793178,27.3308364 16.1911059,27.3308364 L16.1911059,27.3308364 L23.2511659,27.3308364 Z M13.8693297,18.0753456 L14.0122272,18.0821682 C14.7646532,18.1543867 15.3531332,18.791022 15.3531332,19.5654603 L15.3531332,19.5654603 L15.3463406,19.7089892 C15.2744389,20.4647396 14.6405906,21.0558196 13.8693297,21.0558196 L13.8693297,21.0558196 L13.7264347,21.048997 C12.974034,20.9767777 12.3857698,20.3401289 12.3857698,19.5654603 C12.3857698,18.7426196 13.049865,18.0753456 13.8693297,18.0753456 L13.8693297,18.0753456 Z M17.628754,10.8059517 L17.5278197,10.8131156 L17.3970463,10.8336622 L17.3102641,10.8539358 C17.0031076,10.950356 16.8221221,11.2821805 16.9216837,11.6014675 L16.9216837,11.6014675 L16.9268281,11.618131 L16.9268281,11.618131 L16.9321553,11.634978 L17.0435075,11.9588614 L17.0435075,11.9588614 L17.1639919,12.2770579 L17.3402416,12.6926637 C17.4635559,12.9664547 17.597874,13.2339405 17.7394437,13.4966429 L17.7394437,13.4966429 L17.9609125,13.8852859 C18.3407566,14.5260635 18.7742665,15.1311135 19.2617243,15.6865636 L19.2617243,15.6865636 L19.5581425,16.0158214 C20.6653908,17.2020473 21.9932125,18.1560031 23.4221211,18.8548918 L23.4221211,18.8548918 L23.8922757,19.0793058 C25.3127907,19.7254569 26.8207689,20.1312 28.3352567,20.3885457 C29.6826856,20.6157808 31.0432649,20.7070173 32.3999479,20.7070173 L32.3999479,20.7070173 L32.9119611,20.7027368 L32.9119611,20.7027368 L33.4232438,20.6903844 L32.7882842,20.661852 C31.3075819,20.580776 29.834524,20.3956697 28.4017392,20.0534411 L28.4017392,20.0534411 L27.9128498,19.9305044 C26.450534,19.5452587 25.0307073,19.0094558 23.7428448,18.2519482 L23.7428448,18.2519482 L23.3872113,18.0400373 C22.0963406,17.2431013 20.9526668,16.2282141 20.0514788,15.0373902 L20.0514788,15.0373902 L19.8106091,14.7097109 C19.4202461,14.1561915 19.0851274,13.5668029 18.8024344,12.9575404 L18.8024344,12.9575404 L18.6413284,12.5886807 C18.5380734,12.3413067 18.4438019,12.0909974 18.3626265,11.8377529 L18.3626265,11.8377529 L18.2758096,11.5526083 L18.2758096,11.5526083 L18.1984901,11.2670967 L18.1977899,11.2642838 L18.1972724,11.2614709 L18.1647419,11.1652135 C18.0582131,10.9199915 17.7992699,10.7705005 17.5278197,10.8131156 Z M5.64594631,0.15043016 C7.40298585,0.15043016 8.89117277,1.30446186 9.40160311,2.89926616 L9.40160311,2.89926616 L9.0562861,3.2099045 C7.57991116,4.57776674 6.36563499,6.22637597 5.49593434,8.07112846 L5.49593434,8.07112846 L5.29320681,8.05829001 C3.27998451,7.87887698 1.70106986,6.18135006 1.70106986,4.11249152 L1.70106986,4.11249152 L1.70620253,3.9086024 C1.81185109,1.81514952 3.53520819,0.15043016 5.64594631,0.15043016 Z M33.6991587,0.15043016 C35.8777416,0.15043016 37.6440351,1.92428304 37.6440351,4.11249152 L37.6440351,4.11249152 L37.6389669,4.31505988 C37.5380089,6.32793455 35.9409248,7.94434578 33.9424411,8.06672563 L33.9424411,8.06672563 L33.7468895,7.66697113 C32.8090076,5.81631978 31.5189198,4.17597387 29.9649322,2.83542507 L29.9649322,2.83542507 L30.03294,2.65021417 C30.6124688,1.18603306 32.0348441,0.15043016 33.6991587,0.15043016 Z"/>
    </g>
</svg>
